<svg width="12" height="12" viewBox="0 0 12 12" fill="none" xmlns="http://www.w3.org/2000/svg">
<path d="M3 10.6875C2.97089 10.6875 2.94218 10.6807 2.91615 10.6677C2.89011 10.6547 2.86747 10.6358 2.85 10.6125C2.82016 10.5727 2.80735 10.5227 2.81439 10.4735C2.82142 10.4243 2.84772 10.3798 2.8875 10.35L8.68688 6L2.8875 1.65C2.8678 1.63523 2.85121 1.61672 2.83866 1.59553C2.82612 1.57434 2.81787 1.55089 2.81439 1.52652C2.8109 1.50214 2.81226 1.47732 2.81837 1.45347C2.82448 1.42961 2.83523 1.4072 2.85 1.3875C2.87984 1.34772 2.92426 1.32142 2.97348 1.31438C2.99786 1.3109 3.02268 1.31226 3.04653 1.31837C3.07039 1.32448 3.0928 1.33523 3.1125 1.35L9.1125 5.85C9.13579 5.86747 9.15469 5.89011 9.16771 5.91615C9.18072 5.94218 9.1875 5.97089 9.1875 6C9.1875 6.02911 9.18072 6.05782 9.16771 6.08385C9.15469 6.10989 9.13579 6.13253 9.1125 6.15L3.1125 10.65C3.08005 10.6743 3.04057 10.6875 3 10.6875Z" fill="#010101"/>
</svg>
