<svg width="12" height="12" viewBox="0 0 12 12" fill="none" xmlns="http://www.w3.org/2000/svg">
<g clip-path="url(#clip0_293_924)">
<path d="M11.9958 5.98893C11.9958 6.36393 11.6833 6.65768 11.3292 6.65768H10.6625L10.6771 9.99518C10.6771 10.0514 10.6729 10.1077 10.6667 10.1639V10.4993C10.6667 10.9598 10.2937 11.3327 9.83333 11.3327H9.5C9.47708 11.3327 9.45417 11.3327 9.43125 11.3306C9.40208 11.3327 9.37292 11.3327 9.34375 11.3327H8.66667H8.16667C7.70625 11.3327 7.33333 10.9598 7.33333 10.4993V9.99935V8.66602C7.33333 8.29727 7.03542 7.99935 6.66667 7.99935H5.33333C4.96458 7.99935 4.66667 8.29727 4.66667 8.66602V9.99935V10.4993C4.66667 10.9598 4.29375 11.3327 3.83333 11.3327H3.33333H2.66875C2.6375 11.3327 2.60625 11.3306 2.575 11.3285C2.55 11.3306 2.525 11.3327 2.5 11.3327H2.16667C1.70625 11.3327 1.33333 10.9598 1.33333 10.4993V8.16602C1.33333 8.14727 1.33333 8.12643 1.33542 8.10768V6.65768H0.666667C0.291667 6.65768 0 6.36602 0 5.98893C0 5.80143 0.0625 5.63477 0.208333 5.48893L5.55 0.832682C5.69583 0.686849 5.8625 0.666016 6.00833 0.666016C6.15417 0.666016 6.32083 0.707682 6.44583 0.811849L11.7667 5.48893C11.9333 5.63477 12.0167 5.80143 11.9958 5.98893Z" fill="black"/>
</g>
<defs>
<clipPath id="clip0_293_924">
<rect width="12" height="10.6667" fill="white" transform="translate(0 0.666016)"/>
</clipPath>
</defs>
</svg>
